<svg xmlns="http://www.w3.org/2000/svg" viewBox="0 0 150 150"><defs><style>.a{fill:#636363;}.b{fill:#fffffd;}</style></defs><title>logo-icon-mono</title><rect class="a" x="13.663" y="13.646" width="55.451" height="29.706" rx="7.03"/><rect x="13.758" y="27.962" width="118.823" height="108.921" rx="11.451"/><rect x="17.513" y="26.289" width="118.823" height="108.921" rx="11.451"/><path class="b" d="M73.128,127.335c-26.926,3.018-39.2-6.762-39.2-33.7V67.4H23.537V55.053H33.925V42.5l14.5-6.336V55.053h24.7V67.4h-24.7V93.63c0,16.444,5.735,22.636,24.7,20.532v13.173Z"/><path class="b" d="M103.239,94.5V126.92H88.76V55.053h14.479l-.367,14.3c3.674-8.735,12.428-16.661,27.6-15.293V67.289C111.2,65.682,103.239,77.85,103.239,94.5Z"/></svg>