<svg xmlns="http://www.w3.org/2000/svg" viewBox="0 0 300 100"><defs><style>.a{fill:#636363;}.b{fill:#fffffd;}</style></defs><title>logo-mono</title><path d="M83.859,58.554c0-12.855,9.411-22.473,21.942-22.473,7.664,0,14.4,3.608,17.645,9.349l-.1-8.742h8.8v43.8h-8.8l.1-8.85c-3.244,5.741-9.981,9.421-17.645,9.421C93.27,81.064,83.859,71.445,83.859,58.554Zm39.94-.2c0-8.307-6.732-14.765-15.423-14.765-8.828,0-15.459,6.356-15.459,14.765,0,8.6,6.631,15.1,15.459,15.1C117.118,73.457,123.8,66.9,123.8,58.352Z"/><path d="M178.512,58.271c0-9.59-3.192-14.533-11.519-14.533-8.677,0-13.2,5.984-13.2,14.614V80.493h-8.805V36.7H153.8v7.81a17.25,17.25,0,0,1,15.242-8.28c12.87,0,18.5,7.646,18.5,21.788V80.493h-9.022Z"/><path d="M228.328,68.516c.033,7.285-6.216,12.527-14.976,12.65a26.618,26.618,0,0,1-17.135-6.252l4.983-5.67c3.358,2.9,7.733,4.79,11.466,4.732,3.913-.066,6.9-2.319,6.863-5.423-.044-3.6-1.826-5.1-7.379-6.657-9.821-2.553-14.37-6.351-14.37-13.445,0-7.148,6.026-12.229,14.574-12.37a21.516,21.516,0,0,1,14.673,5.6l-4.835,4.994a14.68,14.68,0,0,0-9.08-3.456c-4,.047-6.785,2.266-6.785,5.219,0,3.089,1.959,4.743,7.3,6.084,9.905,2.359,14.664,6.764,14.7,13.994Z"/><path d="M239.145,80.493V44.346H233.7V36.789h5.448c.036-13.217,6.394-17.118,20.486-16.351l.1,7.275c-8.874-.766-12.135,1.7-12.171,9.076h11.2v7.557H247.812v36.2Z"/><path d="M276.493,60.78V80.493h-8.805v-43.7h8.805l-.222,8.693c2.234-5.313,7.557-10.133,16.782-9.3v8.047C281.334,43.252,276.493,50.652,276.493,60.78Z"/><rect class="a" x="5.344" y="11.607" width="33.722" height="18.065" rx="4.275"/><rect x="5.402" y="20.313" width="72.261" height="66.239" rx="6.964"/><rect x="7.686" y="19.296" width="72.261" height="66.239" rx="6.964"/><path class="b" d="M17.668,60.249V44.3H11.351V36.79h6.317V29.157L26.486,25.3V36.79H41.508V44.3H26.486V60.249c0,10,3.489,13.766,15.022,12.486v8.011C25.134,82.581,17.668,76.635,17.668,60.249Z"/><path class="b" d="M59.819,60.781V80.494h-8.8V36.79h8.8L59.6,45.483c2.234-5.313,7.557-10.133,16.782-9.3V44.23C64.66,43.253,59.819,50.653,59.819,60.781Z"/></svg>