<svg xmlns="http://www.w3.org/2000/svg" viewBox="0 0 150 150"><defs><style>.a{fill:#c3ca1d;}.b{fill:#ddd;}.c{fill:#fffffd;}.d{fill:#23ba5d;}</style></defs><title>logo-icon-invert</title><rect class="a" x="13.663" y="13.649" width="55.451" height="29.706" rx="7.03"/><rect class="b" x="13.758" y="27.964" width="118.824" height="108.922" rx="11.451"/><rect class="c" x="17.513" y="26.292" width="118.824" height="108.922" rx="11.451"/><path class="d" d="M73.129,127.338c-26.926,3.017-39.2-6.762-39.2-33.7V67.4H23.538V55.056H33.926V42.505l14.5-6.337V55.056h24.7V67.4h-24.7V93.633c0,16.444,5.735,22.636,24.7,20.532v13.173Z"/><path class="d" d="M103.24,94.507v32.416H88.761V55.056H103.24l-.367,14.3c3.674-8.736,12.428-16.663,27.6-15.293V67.292C111.2,65.685,103.24,77.853,103.24,94.507Z"/></svg>