<svg xmlns="http://www.w3.org/2000/svg" viewBox="0 0 150 150"><defs><style>.a{fill:#c3ca1d;}.b{fill:#198b1c;}.c{fill:#23ba5d;}.d{fill:#fffffd;}</style></defs><title>logo-icon</title><rect class="a" x="13.663" y="13.647" width="55.451" height="29.706" rx="7.03"/><rect class="b" x="13.758" y="27.963" width="118.823" height="108.921" rx="11.451"/><rect class="c" x="17.514" y="26.29" width="118.823" height="108.921" rx="11.451"/><path class="d" d="M73.13,127.336c-26.926,3.018-39.2-6.762-39.2-33.7V67.4H23.539V55.054H33.927V42.5l14.5-6.337V55.054h24.7V67.4h-24.7V93.631c0,16.444,5.735,22.636,24.7,20.532v13.173Z"/><path class="d" d="M103.241,94.505v32.416H88.762V55.054h14.479l-.367,14.3c3.674-8.735,12.428-16.662,27.6-15.293V67.29C111.2,65.683,103.241,77.851,103.241,94.505Z"/></svg>