<svg xmlns="http://www.w3.org/2000/svg" viewBox="0 0 39.14 47.5"><defs><style>.a,.b{fill:none;stroke:#c3ca1d;stroke-miterlimit:10;}.a{stroke-linecap:round;stroke-width:3px;}.b{stroke-width:2px;}.c{fill:#c0cc00;}</style></defs><title>clipboard</title><path class="a" d="M38.6,24.534l-.028-13.573a3,3,0,0,0-2.941-3.033H12.242A3,3,0,0,0,9.3,10.961V43.967A3,3,0,0,0,12.242,47H35.633a3,3,0,0,0,2.941-3.033L38.6,34.3" transform="translate(-7.802 -1)"/><line class="a" x1="6.382" y1="16.583" x2="25.918" y2="16.583"/><line class="a" x1="6.427" y1="24.455" x2="18.882" y2="24.397"/><line class="a" x1="6.415" y1="32.269" x2="18.869" y2="32.269"/><line class="a" x1="6.382" y1="40.141" x2="25.918" y2="40.061"/><path class="a" d="M45.441,29.4H29.812" transform="translate(-7.802 -1)"/><line class="a" x1="22.011" y1="28.417" x2="27.133" y2="34.739"/><line class="a" x1="27.133" y1="22.096" x2="22.011" y2="28.417"/><circle class="b" cx="16.189" cy="3.344" r="2.344"/><path class="c" d="M32.845,3.929H26.39c0,.012,0,.024,0,.036a2.442,2.442,0,1,1-4.884,0c0-.012,0-.024,0-.036H15.058A1.857,1.857,0,0,0,13.207,5.78v4.627a1.857,1.857,0,0,0,1.851,1.851H32.845A1.857,1.857,0,0,0,34.7,10.407V5.78A1.857,1.857,0,0,0,32.845,3.929Z" transform="translate(-7.802 -1)"/></svg>