<svg xmlns="http://www.w3.org/2000/svg" viewBox="0 0 300 100"><defs><style>.a{fill:#fffffd;}.b{fill:#c3ca1d;}.c{fill:#ddd;}.d{fill:#23ba5d;}</style></defs><title>logo-invert</title><path class="a" d="M84.106,58.709c0-12.807,9.375-22.39,21.86-22.39,7.636,0,14.348,3.595,17.58,9.315l-.1-8.71h8.773V80.567h-8.773l.1-8.818c-3.232,5.721-9.944,9.388-17.58,9.388C93.481,81.137,84.106,71.553,84.106,58.709Zm39.792-.2c0-8.277-6.707-14.71-15.366-14.71-8.8,0-15.4,6.332-15.4,14.71,0,8.565,6.607,15.05,15.4,15.05C117.241,73.558,123.9,67.023,123.9,58.508Z"/><path class="a" d="M178.407,58.427c0-9.555-3.179-14.479-11.476-14.479-8.644,0-13.147,5.962-13.147,14.56V80.567h-8.772V36.938h8.772V44.72a17.183,17.183,0,0,1,15.186-8.25c12.822,0,18.426,7.618,18.426,21.707v22.39h-8.989Z"/><path class="a" d="M228.038,68.635c.032,7.258-6.193,12.48-14.922,12.6a26.511,26.511,0,0,1-17.07-6.229l4.965-5.649c3.344,2.885,7.7,4.772,11.424,4.714,3.9-.066,6.874-2.31,6.837-5.4-.043-3.583-1.819-5.081-7.352-6.632-9.785-2.544-14.316-6.327-14.316-13.4,0-7.122,6-12.184,14.519-12.325A21.439,21.439,0,0,1,226.742,41.9l-4.816,4.975a14.625,14.625,0,0,0-9.048-3.442c-3.989.047-6.76,2.257-6.76,5.2,0,3.078,1.952,4.724,7.278,6.062,9.868,2.349,14.609,6.739,14.642,13.942Z"/><path class="a" d="M238.814,80.567V44.554h-5.427v-7.53h5.427c.037-13.168,6.371-17.054,20.411-16.291l.1,7.249c-8.842-.762-12.091,1.7-12.127,9.042h11.162v7.53H247.45V80.618Z"/><path class="a" d="M276.024,60.927v19.64h-8.772V37.024h8.772l-.222,8.662c2.225-5.293,7.529-10.1,16.72-9.266v8.018C280.847,43.464,276.024,50.836,276.024,60.927Z"/><rect class="b" x="5.882" y="11.6" width="33.596" height="17.998" rx="4.259"/><rect class="c" x="5.94" y="20.273" width="71.992" height="65.993" rx="6.938"/><rect class="a" x="8.215" y="19.26" width="71.992" height="65.993" rx="6.938"/><path class="d" d="M41.913,80.48C25.6,82.309,18.16,76.384,18.16,60.06v-15.9H11.866V36.687H18.16v-7.6l8.786-3.84V36.687H41.913v7.478H26.946v15.9c0,9.962,3.475,13.714,14.966,12.44v7.98Z"/><path class="d" d="M60.156,60.589v19.64H51.383V36.687h8.773l-.222,8.661c2.225-5.293,7.529-10.1,16.72-9.266V44.1C64.978,43.126,60.156,50.5,60.156,60.589Z"/></svg>