<svg xmlns="http://www.w3.org/2000/svg" viewBox="0 0 300 100"><defs><style>.a{fill:#23ba5d;}.b{fill:#c3ca1d;}.c{fill:#198b1c;}.d{fill:#fffffd;}</style></defs><title>logo</title><path class="a" d="M84.105,58.709c0-12.807,9.375-22.39,21.86-22.39,7.636,0,14.349,3.595,17.581,9.314l-.1-8.709h8.772V80.567h-8.772l.1-8.818c-3.232,5.721-9.945,9.388-17.581,9.388C93.48,81.137,84.105,71.553,84.105,58.709Zm39.793-.2c0-8.277-6.707-14.711-15.367-14.711-8.8,0-15.4,6.333-15.4,14.711,0,8.565,6.607,15.05,15.4,15.05C117.241,73.558,123.9,67.023,123.9,58.508Z"/><path class="a" d="M178.406,58.427c0-9.555-3.179-14.479-11.476-14.479-8.644,0-13.147,5.962-13.147,14.56V80.567h-8.772V36.938h8.772v7.781a17.185,17.185,0,0,1,15.186-8.249c12.822,0,18.427,7.618,18.427,21.707v22.39h-8.99Z"/><path class="a" d="M228.037,68.635c.032,7.258-6.193,12.48-14.922,12.6a26.511,26.511,0,0,1-17.07-6.229l4.965-5.649c3.344,2.885,7.7,4.772,11.424,4.714,3.9-.066,6.874-2.31,6.837-5.4-.043-3.583-1.819-5.081-7.352-6.632-9.785-2.544-14.316-6.327-14.316-13.4,0-7.122,6-12.184,14.519-12.325A21.434,21.434,0,0,1,226.741,41.9l-4.816,4.975a14.632,14.632,0,0,0-9.048-3.443c-3.989.047-6.76,2.258-6.76,5.2,0,3.078,1.952,4.724,7.278,6.062,9.868,2.349,14.609,6.739,14.642,13.942Z"/><path class="a" d="M238.813,80.567V44.554h-5.427v-7.53h5.427c.037-13.168,6.371-17.054,20.411-16.291l.1,7.249c-8.842-.763-12.091,1.7-12.127,9.042H258.36v7.53H247.449V80.618Z"/><path class="a" d="M276.023,60.927v19.64h-8.772V37.024h8.772l-.222,8.661c2.225-5.292,7.529-10.095,16.72-9.266v8.019C280.846,43.464,276.023,50.836,276.023,60.927Z"/><rect class="b" x="5.882" y="11.599" width="33.596" height="17.998" rx="4.259"/><rect class="c" x="5.94" y="20.273" width="71.992" height="65.993" rx="6.938"/><rect class="a" x="8.215" y="19.259" width="71.992" height="65.993" rx="6.938"/><path class="d" d="M41.912,80.48c-16.314,1.829-23.753-4.1-23.753-20.42v-15.9H11.865V36.687h6.294v-7.6l8.787-3.84V36.687H41.912v7.478H26.946v15.9c0,9.962,3.474,13.714,14.965,12.44v7.98Z"/><path class="d" d="M60.155,60.589v19.64H51.382V36.687h8.773l-.222,8.66c2.226-5.292,7.529-10.095,16.72-9.265V44.1C64.978,43.126,60.155,50.5,60.155,60.589Z"/></svg>