<?xml version="1.0" encoding="utf-8"?>
<!-- Generator: Adobe Illustrator 23.0.1, SVG Export Plug-In . SVG Version: 6.00 Build 0)  -->
<svg version="1.2" baseProfile="tiny" id="Layer_1" xmlns="http://www.w3.org/2000/svg" xmlns:xlink="http://www.w3.org/1999/xlink"
	 x="0px" y="0px" viewBox="0 0 44 44" xml:space="preserve">
<path fill="#198B1C" d="M32,24H12c-1.105,0-2-0.895-2-2v0c0-1.105,0.895-2,2-2h20c1.105,0,2,0.895,2,2v0C34,23.105,33.105,24,32,24z
	"/>
<path fill="#198B1C" d="M32,32H12c-1.105,0-2-0.895-2-2v0c0-1.105,0.895-2,2-2h20c1.105,0,2,0.895,2,2v0C34,31.105,33.105,32,32,32z
	"/>
<path fill="#198B1C" d="M32,16H12c-1.105,0-2-0.895-2-2v0c0-1.105,0.895-2,2-2h20c1.105,0,2,0.895,2,2v0C34,15.105,33.105,16,32,16z
	"/>
</svg>
